<?xml version="1.0" encoding="utf-8"?>
<!-- Generator: Adobe Illustrator 19.2.1, SVG Export Plug-In . SVG Version: 6.00 Build 0)  -->
<svg version="1.1" id="Livello_1" xmlns="http://www.w3.org/2000/svg" xmlns:xlink="http://www.w3.org/1999/xlink" x="0px" y="0px"
	 viewBox="0 0 118.3 118.3" style="enable-background:new 0 0 118.3 118.3;" xml:space="preserve">
<g>
	<g>
		<path style="fill:#007ED9;" d="M59.2,0.2c-32.6,0-59,26.4-59,59s26.4,59,59,59s59-26.4,59-59S91.7,0.2,59.2,0.2z"/>
	</g>
	<g>
		<g id="Handle_27_">
			<polygon style="fill:#DADADA;" points="70.8,35.9 53.3,49.5 68.9,65 82.5,47.5 			"/>
		</g>
		<g>
			<g id="Needle_13_">
				<polygon style="fill:#FFFFFF;" points="49.5,65 28.1,90.2 53.3,68.9 				"/>
			</g>
			<g id="Handle_25_">
				<path style="fill-rule:evenodd;clip-rule:evenodd;fill:#FFFFFF;" d="M37.9,53.3l27.2,27.3c3.7-4.1,3.8-11.8,3.8-17.6L55.3,49.5
					C49.5,49.5,42,49.7,37.9,53.3z M70.8,28.1v9.7l9.7,9.7h9.7L70.8,28.1z"/>
			</g>
		</g>
	</g>
</g>
</svg>
