<?xml version="1.0" encoding="utf-8"?>
<!-- Generator: Adobe Illustrator 19.2.1, SVG Export Plug-In . SVG Version: 6.00 Build 0)  -->
<svg version="1.1" id="Livello_1" xmlns="http://www.w3.org/2000/svg" xmlns:xlink="http://www.w3.org/1999/xlink" x="0px" y="0px"
	 viewBox="0 0 118.3 118.3" style="enable-background:new 0 0 118.3 118.3;" xml:space="preserve">
<g>
	<polygon style="fill:#FFFFFF;" points="79.3,50.1 61.2,50.1 61.2,32 55.3,32 55.3,50.1 37.2,50.1 37.2,56 55.3,56 55.3,74.1 
		61.2,74.1 61.2,56 79.3,56 	"/>
	<path style="fill:#1D8AA3;" d="M59.2,0.2c-32.6,0-59,26.4-59,59s26.4,59,59,59s59-26.4,59-59S91.7,0.2,59.2,0.2z"/>
	<path style="fill:#FFFFFF;" d="M81.7,90.6H36.6c-2.2,0-3.9-1.8-3.9-3.9V31.6c0-2.2,1.8-3.9,3.9-3.9h45.1c2.2,0,3.9,1.8,3.9,3.9
		v55.1C85.7,88.9,83.9,90.6,81.7,90.6z"/>
	<g id="File_71_">
		<path style="fill-rule:evenodd;clip-rule:evenodd;fill:#B2B2B2;" d="M44.6,46.1h14.7c1,0,1.8-0.8,1.8-1.8c0-1-0.8-1.8-1.8-1.8
			H44.6c-1,0-1.8,0.8-1.8,1.8C42.8,45.2,43.6,46.1,44.6,46.1z M44.6,38.7h25.8c1,0,1.8-0.8,1.8-1.8c0-1-0.8-1.8-1.8-1.8H44.6
			c-1,0-1.8,0.8-1.8,1.8C42.8,37.9,43.6,38.7,44.6,38.7z M70.4,49.7H44.6c-1,0-1.8,0.8-1.8,1.8c0,1,0.8,1.8,1.8,1.8h25.8
			c1,0,1.8-0.8,1.8-1.8C72.2,50.6,71.4,49.7,70.4,49.7z M59.4,57.1H44.6c-1,0-1.8,0.8-1.8,1.8c0,1,0.8,1.8,1.8,1.8h14.7
			c1,0,1.8-0.8,1.8-1.8C61.2,57.9,60.4,57.1,59.4,57.1z"/>
	</g>
	<circle style="fill:#88C057;" cx="80.3" cy="84.7" r="11.8"/>
	<g id="Plus_23_">
		<path style="fill:#FFFFFF;" d="M84.3,82.8h-2v-2c0-1.1-0.9-2-2-2c-1.1,0-2,0.9-2,2v2h-2c-1.1,0-2,0.9-2,2c0,1.1,0.9,2,2,2h2v2
			c0,1.1,0.9,2,2,2c1.1,0,2-0.9,2-2v-2h2c1.1,0,2-0.9,2-2C86.2,83.6,85.4,82.8,84.3,82.8z"/>
	</g>
</g>
</svg>
