<?xml version="1.0" encoding="utf-8"?>
<!-- Generator: Adobe Illustrator 19.2.1, SVG Export Plug-In . SVG Version: 6.00 Build 0)  -->
<svg version="1.1" id="Livello_1" xmlns="http://www.w3.org/2000/svg" xmlns:xlink="http://www.w3.org/1999/xlink" x="0px" y="0px"
	 viewBox="0 0 118.3 118.3" style="enable-background:new 0 0 118.3 118.3;" xml:space="preserve">
<g>
	<circle style="fill:#1F4F8D;" cx="59.2" cy="59.2" r="59"/>
	<g id="Pin_23_">
		<path style="fill-rule:evenodd;clip-rule:evenodd;fill:#FFFFFF;" d="M59.2,32.8c-12.5,0-22.6,8.9-22.6,19.9c0,0.2,0.1,5.3,2.1,9
			C44.2,73,59.1,85.6,59.2,85.5c0,0,14.9-12.4,20.5-23.7c1.7-2.7,2.1-8.6,2.1-9.1C81.7,41.7,71.6,32.8,59.2,32.8z M59.2,62.9
			c-4.1,0-7.5-3.4-7.5-7.5s3.4-7.5,7.5-7.5c4.1,0,7.5,3.4,7.5,7.5S63.3,62.9,59.2,62.9z"/>
	</g>
</g>
</svg>
