<?xml version="1.0" encoding="utf-8"?>
<!-- Generator: Adobe Illustrator 19.2.1, SVG Export Plug-In . SVG Version: 6.00 Build 0)  -->
<svg version="1.1" id="Livello_1" xmlns="http://www.w3.org/2000/svg" xmlns:xlink="http://www.w3.org/1999/xlink" x="0px" y="0px"
	 viewBox="0 0 118.3 118.3" style="enable-background:new 0 0 118.3 118.3;" xml:space="preserve">
<g>
	<path style="fill:#0CC7D2;" d="M59.2,0.2c-32.6,0-59,26.4-59,59s26.4,59,59,59s59-26.4,59-59S91.7,0.2,59.2,0.2z"/>
	<g>
		<g id="Folder_87_">
			<path style="fill-rule:evenodd;clip-rule:evenodd;fill:#CCA352;" d="M86.7,33.6H51.3c0-2.2-1.8-3.9-3.9-3.9H31.6
				c-2.2,0-3.9,1.8-3.9,3.9v3.9v5.9v21.6c0,2.2,1.8,3.9,3.9,3.9h55.1c2.2,0,3.9-1.8,3.9-3.9V37.5C90.6,35.4,88.9,33.6,86.7,33.6z"/>
		</g>
		<g id="File_69_">
			<path style="fill:#FFFFFF;" d="M84.7,37.5H33.6c-1.1,0-2,0.9-2,2v21.6h55.1V39.5C86.7,38.4,85.8,37.5,84.7,37.5z"/>
		</g>
		<g id="Text_47_">
			<path style="fill:#CCCCCC;" d="M61.1,53.3H45.4c-1.1,0-2,0.9-2,2c0,1.1,0.9,2,2,2h15.7c1.1,0,2-0.9,2-2
				C63.1,54.1,62.2,53.3,61.1,53.3z M72.9,45.4H45.4c-1.1,0-2,0.9-2,2c0,1.1,0.9,2,2,2h27.5c1.1,0,2-0.9,2-2
				C74.9,46.3,74,45.4,72.9,45.4z"/>
		</g>
		<g id="Folder_85_">
			<path style="fill:#FFCC66;" d="M86.7,61.1H31.6c-2.2,0-3.9,1.8-3.9,3.9v19.7c0,2.2,1.8,3.9,3.9,3.9h55.1c2.2,0,3.9-1.8,3.9-3.9
				V65.1C90.6,62.9,88.9,61.1,86.7,61.1z"/>
		</g>
	</g>
</g>
</svg>
